{"title":"Oldboy.2013.xvid-mvivaro","uid":9619098,"size":1479855532,"categoryP":"video","categoryS":"movies","magnet":"?xt=urn:btih:0dfcb0292d6753252002d2adf3353693a801b418&amp;dn=Oldboy.2013.xvid-mvivaro&amp;tr=udp%3A%2F%2Ftracker.openbittorrent.com%3A80&amp;tr=udp%3A%2F%2Fopen.demonii.com%3A1337&amp;tr=udp%3A%2F%2Ftracker.coppersurfer.tk%3A6969&amp;tr=udp%3A%2F%2Fexodus.desync.com%3A6969","seeders":1,"leechers":0,"uploader":null,"files":-1,"time":1392474334,"description":"                              Oldboy (2013) \n\n   Obsessed with vengeance, a man sets out to find out why he was kidnapped and locked into solitary confinement for 20 years without reason.\n\n\n\n\nGeneral\n\nComplete name                            : Oldboy.2013\n\nFormat                                   : AVI\n\nFormat/Info                              : Audio Video Interleave\n\nFile size                                : 1.37 GiB\n\nDuration                                 : 1h 43mn\n\nOverall bit rate                         : 1 888 Kbps\n\nVideo\n\nID                                       : 0\n\nFormat                                   : MPEG-4 Visual\n\nFormat profile                           : Advanced Simple@L5\n\nFormat settings, BVOP                    : 2\n\nFormat settings, QPel                    : No\n\nFormat settings, GMC                     : No warppoints\n\nFormat settings, Matrix                  : Default (H.263)\n\nMuxing mode                              : Packed bitstream\n\nCodec ID                                 : XVID\n\nCodec ID/Hint                            : XviD\n\nDuration                                 : 1h 43mn\n\nBit rate                                 : 1 432 Kbps\n\nWidth                                    : 720 pixels\n\nHeight                                   : 304 pixels\n\nDisplay aspect ratio                     : 2.35:1\n\nFrame rate                               : 23.976 fps\n\nColor space                              : YUV\n\nChroma subsampling                       : 4:2:0\n\nBit depth                                : 8 bits\n\nScan type                                : Progressive\n\nCompression mode                         : Lossy\n\nBits/(Pixel*Frame)                       : 0.273\n\nStream size                              : 1.04 GiB (76%)\n\nWriting library                          : XviD 64\n\nAudio\n\nID                                       : 1\n\nFormat                                   : AC-3\n\nFormat/Info                              : Audio Coding 3\n\nMode extension                           : CM (complete main)\n\nFormat settings, Endianness              : Big\n\nCodec ID                                 : 2000\n\nDuration                                 : 1h 43mn\n\nBit rate mode                            : Constant\n\nBit rate                                 : 448 Kbps\n\nChannel(s)                               : 6 channels\n\nChannel positions                        : Front: L C R, Side: L R, LFE\n\nSampling rate                            : 48.0 KHz\n\nBit depth                                : 16 bits\n\nCompression mode                         : Lossy\n\nStream size                              : 333 MiB (24%)\n\nAlignment                                : Aligned on interleaves\n\nInterleave, duration                     : 64 ms (1.53 video frames)\n\nInterleave, preload duration             : 192 ms\n\n\n\n\n\n\n\n\n\nscreenshots:   &lt;a href=&quot; http://postimg.org/image/6nqx23dff/4a7a297f/&quot; rel=&quot;nofollow&quot; target=&quot;_NEW&quot;&gt; http://postimg.org/image/6nqx23dff/4a7a297f/&lt;/a&gt;\n               &lt;a href=&quot; http://postimg.org/image/5btw1vki9/f18e9029/&quot; rel=&quot;nofollow&quot; target=&quot;_NEW&quot;&gt; http://postimg.org/image/5btw1vki9/f18e9029/&lt;/a&gt;\n               &lt;a href=&quot; http://postimg.org/image/iasc3659f/e9ac86b5/&quot; rel=&quot;nofollow&quot; target=&quot;_NEW&quot;&gt; http://postimg.org/image/iasc3659f/e9ac86b5/&lt;/a&gt;\n","torrent":{"xt":"urn:btih:0dfcb0292d6753252002d2adf3353693a801b418","amp;dn":"Oldboy.2013.xvid-mvivaro","amp;tr":["udp%3A%2F%2Ftracker.openbittorrent.com%3A80","udp%3A%2F%2Fopen.demonii.com%3A1337","udp%3A%2F%2Ftracker.coppersurfer.tk%3A6969","udp%3A%2F%2Fexodus.desync.com%3A6969"],"infoHash":"0dfcb0292d6753252002d2adf3353693a801b418","infoHashBuffer":{"type":"Buffer","data":[13,252,176,41,45,103,83,37,32,2,210,173,243,53,54,147,168,1,180,24]},"announce":[],"urlList":[]}}